<svg xmlns="http://www.w3.org/2000/svg" data-name="Layer 1" viewBox="0 0 64 80" x="0px" y="0px"><rect x="31" y="2.28" width="2" height="4.72"/><rect x="53" y="27" width="4.72" height="2"/><rect x="6.28" y="27" width="4.72" height="2"/><rect x="47.518" y="42.158" width="2" height="4.72" transform="translate(-17.268 47.346) rotate(-45)"/><rect x="14.482" y="9.122" width="2" height="4.72" transform="translate(-3.584 14.31) rotate(-45)"/><rect x="46.158" y="10.482" width="4.72" height="2" transform="translate(6.092 37.67) rotate(-45)"/><path d="M49,28A17,17,0,1,0,19.657,39.693,15.466,15.466,0,0,1,23.984,50,1,1,0,0,0,23,51v6a2,2,0,0,0,2,2h3.126a4,4,0,0,0,7.748,0H39a2,2,0,0,0,2-2V51a1,1,0,0,0-.983-1A15.847,15.847,0,0,1,44.433,39.6,16.941,16.941,0,0,0,49,28ZM35,57a1,1,0,0,0-1,1,2,2,0,0,1-4,0,1,1,0,0,0-1-1H25V52H39v5Zm2.211-28.108L31.7,34.4c0-1.876.317-4.577,1.976-6.236,2.121-2.121,5.967-2.059,7.581-1.924.134,1.612.2,5.46-1.924,7.581-1.649,1.649-4.328,1.974-6.2,1.976l5.495-5.494ZM38,50H33.7a30.543,30.543,0,0,1-1.845-12.2c.187.006.376.014.546.014s.354,0,.513-.009c.058,0,.112,0,.172,0,2.228,0,5.507-.419,7.658-2.571,3.448-3.447,2.445-9.794,2.4-10.062a1,1,0,0,0-.824-.824c-.268-.044-6.614-1.045-10.062,2.4a7.077,7.077,0,0,0-.749.9c-3.1-2.333-7.679-1.818-7.889-1.793a1,1,0,0,0-.873.873c-.027.225-.633,5.557,2.407,8.609A8.771,8.771,0,0,0,29.87,37.6,32.543,32.543,0,0,0,31.578,50H26a17.467,17.467,0,0,0-4.889-11.683A15,15,0,0,1,30.291,13.1a15,15,0,0,1,12.68,25.137A17.851,17.851,0,0,0,38,50ZM29.7,34.221c-.005.483.008.92.031,1.294a6.477,6.477,0,0,1-3.155-1.584c-1.739-1.746-1.911-4.7-1.882-6.129,1.353-.036,4.087.143,5.853,1.655a11.437,11.437,0,0,0-.61,2.174l-1.942-1.942L26.577,31.1Z"/><rect x="13.122" y="43.518" width="4.72" height="2" transform="translate(-26.944 23.986) rotate(-45)"/><text x="0" y="79" fill="#000000" font-size="5px" font-weight="bold" font-family="'Helvetica Neue', Helvetica, Arial-Unicode, Arial, Sans-serif">Created by Kamin Ginkaew</text><text x="0" y="84" fill="#000000" font-size="5px" font-weight="bold" font-family="'Helvetica Neue', Helvetica, Arial-Unicode, Arial, Sans-serif">from the Noun Project</text></svg>