<svg xmlns="http://www.w3.org/2000/svg" xmlns:xlink="http://www.w3.org/1999/xlink" version="1.1" x="0px" y="0px" viewBox="0 0 48 60" style="enable-background:new 0 0 48 48;" xml:space="preserve"><g><path d="M22,21c0-4.41-3.59-8-8-8s-8,3.59-8,8s3.59,8,8,8S22,25.41,22,21z M10,21c0-2.21,1.79-4,4-4s4,1.79,4,4s-1.79,4-4,4   S10,23.21,10,21z"/><path d="M42,12c0-4.41-3.59-8-8-8s-8,3.59-8,8s3.59,8,8,8S42,16.41,42,12z M30,12c0-2.21,1.79-4,4-4s4,1.79,4,4s-1.79,4-4,4   S30,14.21,30,12z"/><path d="M34,21c-6.62,0-12,5.38-12,12c0,0.03,0.01,0.06,0.01,0.09C19.88,31.18,17.08,30,14,30C7.38,30,2,35.38,2,42   c0,1.1,0.9,2,2,2h20c1.1,0,2-0.9,2-2c0-2.63-0.86-5.05-2.3-7.03C23.8,34.98,23.9,35,24,35h20c1.1,0,2-0.9,2-2   C46,26.38,40.62,21,34,21z M6.25,40c0.89-3.45,4.03-6,7.75-6s6.86,2.55,7.75,6H6.25z M26.25,31c0.89-3.45,4.03-6,7.75-6   s6.86,2.55,7.75,6H26.25z"/></g><text x="0" y="63" fill="#000000" font-size="5px" font-weight="bold" font-family="'Helvetica Neue', Helvetica, Arial-Unicode, Arial, Sans-serif">Created by thirddesign</text><text x="0" y="68" fill="#000000" font-size="5px" font-weight="bold" font-family="'Helvetica Neue', Helvetica, Arial-Unicode, Arial, Sans-serif">from the Noun Project</text></svg>