<svg xmlns="http://www.w3.org/2000/svg" viewBox="0 0 64 80" x="0px" y="0px"><title>about, info, information</title><g><path d="M29.121,26.8a1,1,0,0,1,1-1H32a1,1,0,0,1,1,1V43.512a1,1,0,0,1-2,0V27.8h-.879A1,1,0,0,1,29.121,26.8ZM32,22.73a2.642,2.642,0,0,0,.29-.02,1.688,1.688,0,0,0,.77-.41,1.509,1.509,0,0,0,0-2.13,1.729,1.729,0,0,0-.49-.32.9.9,0,0,0-.28-.08,1.5,1.5,0,0,0-1.35,2.53A1.551,1.551,0,0,0,32,22.73ZM53.852,11.148v41.7a1,1,0,0,1-1,1h-41.7a1,1,0,0,1-1-1v-41.7a1,1,0,0,1,1-1h41.7A1,1,0,0,1,53.852,11.148Zm-2,1h-39.7v39.7h39.7Z"/></g><text x="0" y="79" fill="#000000" font-size="5px" font-weight="bold" font-family="'Helvetica Neue', Helvetica, Arial-Unicode, Arial, Sans-serif">Created by The Icon Z</text><text x="0" y="84" fill="#000000" font-size="5px" font-weight="bold" font-family="'Helvetica Neue', Helvetica, Arial-Unicode, Arial, Sans-serif">from the Noun Project</text></svg>